<svg width="25" height="25" viewBox="0 0 25 25" fill="none" xmlns="http://www.w3.org/2000/svg">
<path d="M11.5 18.9165H13.5V16.9165H11.5V18.9165ZM12.5 6.9165C11.4391 6.9165 10.4217 7.33793 9.67157 8.08808C8.92143 8.83822 8.5 9.85564 8.5 10.9165H10.5C10.5 10.3861 10.7107 9.87736 11.0858 9.50229C11.4609 9.12722 11.9696 8.9165 12.5 8.9165C13.0304 8.9165 13.5391 9.12722 13.9142 9.50229C14.2893 9.87736 14.5 10.3861 14.5 10.9165C14.5 12.9165 11.5 12.6665 11.5 15.9165H13.5C13.5 13.6665 16.5 13.4165 16.5 10.9165C16.5 9.85564 16.0786 8.83822 15.3284 8.08808C14.5783 7.33793 13.5609 6.9165 12.5 6.9165ZM5.5 3.9165H19.5C20.0304 3.9165 20.5391 4.12722 20.9142 4.50229C21.2893 4.87736 21.5 5.38607 21.5 5.9165V19.9165C21.5 20.4469 21.2893 20.9556 20.9142 21.3307C20.5391 21.7058 20.0304 21.9165 19.5 21.9165H5.5C4.96957 21.9165 4.46086 21.7058 4.08579 21.3307C3.71071 20.9556 3.5 20.4469 3.5 19.9165V5.9165C3.5 5.38607 3.71071 4.87736 4.08579 4.50229C4.46086 4.12722 4.96957 3.9165 5.5 3.9165Z" fill="#66978A"/>
</svg>
