<svg width="25" height="25" viewBox="0 0 25 25" fill="none" xmlns="http://www.w3.org/2000/svg">
<path d="M12.5001 16.3926C11.5718 16.3926 10.6816 16.0238 10.0252 15.3675C9.36883 14.7111 9.00008 13.8208 9.00008 12.8926C9.00008 11.9643 9.36883 11.0741 10.0252 10.4177C10.6816 9.76133 11.5718 9.39258 12.5001 9.39258C13.4283 9.39258 14.3186 9.76133 14.975 10.4177C15.6313 11.0741 16.0001 11.9643 16.0001 12.8926C16.0001 13.8208 15.6313 14.7111 14.975 15.3675C14.3186 16.0238 13.4283 16.3926 12.5001 16.3926ZM19.9301 13.8626C19.9701 13.5426 20.0001 13.2226 20.0001 12.8926C20.0001 12.5626 19.9701 12.2326 19.9301 11.8926L22.0401 10.2626C22.2301 10.1126 22.2801 9.84258 22.1601 9.62258L20.1601 6.16258C20.0401 5.94258 19.7701 5.85258 19.5501 5.94258L17.0601 6.94258C16.5401 6.55258 16.0001 6.21258 15.3701 5.96258L15.0001 3.31258C14.9798 3.1948 14.9184 3.08801 14.8269 3.01113C14.7354 2.93426 14.6196 2.89226 14.5001 2.89258H10.5001C10.2501 2.89258 10.0401 3.07258 10.0001 3.31258L9.63008 5.96258C9.00008 6.21258 8.46008 6.55258 7.94008 6.94258L5.45008 5.94258C5.23008 5.85258 4.96008 5.94258 4.84008 6.16258L2.84008 9.62258C2.71008 9.84258 2.77008 10.1126 2.96008 10.2626L5.07008 11.8926C5.03008 12.2326 5.00008 12.5626 5.00008 12.8926C5.00008 13.2226 5.03008 13.5426 5.07008 13.8626L2.96008 15.5226C2.77008 15.6726 2.71008 15.9426 2.84008 16.1626L4.84008 19.6226C4.96008 19.8426 5.23008 19.9226 5.45008 19.8426L7.94008 18.8326C8.46008 19.2326 9.00008 19.5726 9.63008 19.8226L10.0001 22.4726C10.0401 22.7126 10.2501 22.8926 10.5001 22.8926H14.5001C14.7501 22.8926 14.9601 22.7126 15.0001 22.4726L15.3701 19.8226C16.0001 19.5626 16.5401 19.2326 17.0601 18.8326L19.5501 19.8426C19.7701 19.9226 20.0401 19.8426 20.1601 19.6226L22.1601 16.1626C22.2801 15.9426 22.2301 15.6726 22.0401 15.5226L19.9301 13.8626Z" fill="#66978A"/>
</svg>
