<svg width="18" height="19" viewBox="0 0 18 19" fill="none" xmlns="http://www.w3.org/2000/svg">
<path d="M14.6801 4.39801L15.264 3.8141L15.9314 4.48146L17.0993 3.31359L14.5967 0.811035L13.4289 1.97891L14.0962 2.64623L13.3454 3.39699C9.34136 0.977846 4.16941 2.22912 1.83371 6.2332C-0.501994 10.2373 0.749243 15.2424 4.66992 17.6615C8.5906 20.0807 13.7625 18.8294 16.0983 14.8253C18.1837 11.4052 17.5998 7.06741 14.6801 4.39801ZM9.00766 16.3269C5.75435 16.3269 3.16839 13.7409 3.16839 10.4876C3.16839 7.23426 5.75435 4.64827 9.00766 4.64827V10.4875H14.8469C14.847 13.7409 12.261 16.3269 9.00766 16.3269Z" fill="white"/>
</svg>
